<?xml version="1.0" encoding="UTF-8"?><svg id="Layer_2" xmlns="http://www.w3.org/2000/svg" viewBox="0 0 77.83 101.05"><defs><style>.cls-1{fill:#fff;}.cls-2{opacity:.5;}.cls-2,.cls-3{fill:#cbbba0;}.cls-4{fill:#ffe3b6;}.cls-5{fill:#fff7ea;}.cls-6{fill:#acdad8;}</style></defs><g id="Layer_1-2"><g><g><path class="cls-5" d="M76.52,53.09c.03,.27,.05,.55,.05,.82v16.65c0,1.09-.08,2.17-.23,3.23-2.07,14.62-18.04,26-37.43,26S3.55,88.42,1.49,73.8c-.16-1.07-.23-2.15-.23-3.23v-16.65c0-.28,.02-.55,.05-.82-.03-.85-.05-1.71-.05-2.57C1.26,23.31,18.11,1.26,38.91,1.26s37.66,22.06,37.66,49.27c0,.86-.02,1.72-.05,2.57Z"/><path class="cls-4" d="M38.91,101.05C19.05,101.05,2.42,89.41,.24,73.98c-.16-1.1-.24-2.25-.24-3.41v-16.65c0-.28,.02-.57,.05-.87-.03-.88-.05-1.72-.05-2.52C0,22.67,17.46,0,38.91,0s38.91,22.67,38.91,50.53c0,.8-.02,1.62-.05,2.52,.03,.3,.05,.59,.05,.87v16.65c0,1.16-.08,2.31-.25,3.42-2.18,15.43-18.8,27.07-38.67,27.07Zm0-98.54C18.84,2.51,2.51,24.05,2.51,50.53c0,.79,.02,1.64,.05,2.52v.1s0,.1,0,.1c-.03,.24-.04,.46-.04,.68v16.65c0,1.04,.07,2.06,.22,3.05,2.01,14.21,17.56,24.92,36.19,24.92s34.18-10.71,36.18-24.92c.15-1,.22-2.02,.22-3.06v-16.65c0-.21-.01-.44-.04-.68v-.1s0-.1,0-.1c.03-.9,.05-1.73,.05-2.52C75.32,24.05,58.99,2.51,38.91,2.51Z"/></g><path class="cls-2" d="M75.25,73.66c-2,14.7-17.48,26.14-36.25,26.14S4.74,88.36,2.74,73.66c-.15-1.07-.23-2.16-.23-3.25v-3.87c0,3.92,3.21,7.12,7.14,7.12h58.48c3.92,0,7.13-3.21,7.13-7.12v-6.33c0-.48,.15,12.38,0,13.45Z"/><circle class="cls-1" cx="23.33" cy="48.77" r="8.85"/><circle class="cls-1" cx="49.66" cy="48.77" r="8.85"/><path class="cls-4" d="M48.26,79.73c0,2-4.73,6.28-10.56,6.28s-10.56-3.86-10.56-5.86,4.73-1.39,10.56-1.39,10.56-1.03,10.56,.98Z"/><circle class="cls-6" cx="24.93" cy="48.77" r="5.58"/><circle class="cls-6" cx="49.66" cy="48.77" r="5.58"/><path class="cls-4" d="M33.23,42.4c-.75,5.15-2.47,9.89-4.89,14.48-1.1,2.09-2.67,4.88-1.76,7.3,.84,2.21,3.2,2.96,5.35,3.18,3.08,.32,6.26-.03,9.26-.8,1.95-.5,1.13-3.53-.83-3.03-2.75,.71-5.81,1.09-8.64,.65-.71-.11-1.86-.33-2.18-1.04-.42-.93,.41-2.46,.81-3.31,1.27-2.66,2.7-5.19,3.73-7.97s1.75-5.68,2.18-8.63c.12-.84-.21-1.69-1.1-1.93-.74-.2-1.81,.25-1.93,1.1h0Z"/><path class="cls-3" d="M48.61,34.17c1.94,.24,3.87,.82,5.78,1.26,.89,.21,1.81,.4,2.65,.78,.92,.41,1.79,.92,2.77,1.19,1.2,.32,2.19-.77,1.93-1.93-.39-1.74-2.29-1.85-3.74-1.93-1.69-.09-3.38-.11-5.06-.12s-3.27-.03-4.91-.11c-.72-.04-1.48-.04-2.18-.19-.25-.05-.07,.09-.12-.05-.07-.17-.1-.5-.05-.65l-.4,.69,.13-.13-.69,.4c.26-.11,.53-.12,.81-.08,.12,.02,.48,.07,.23,0,.08,.02,.15,.08,.23,.11,.75,.27,1.42,.59,2.22,.7s1.69-.21,1.93-1.1c.2-.74-.25-1.81-1.1-1.93-.99-.14-1.42-.45-2.22-.7-1.05-.33-2.53-.42-3.46,.26-1.03,.74-.95,2.27-.62,3.37s1.26,1.9,2.39,2.15,2.37,.25,3.52,.3c1.23,.05,2.46,.07,3.68,.08s2.46,.02,3.68,.05c.66,.02,1.33,.04,1.99,.08,.3,.02,.62,.02,.92,.06,.16,0,.2,.01,.12,.01,.4,.15,.29,0-.33-.45l1.93-1.93c-.98-.26-1.84-.82-2.78-1.2s-1.94-.6-2.93-.83c-2.1-.49-4.19-1.04-6.33-1.31-.84-.11-1.57,.8-1.57,1.57,0,.94,.72,1.46,1.57,1.57Z"/><path class="cls-3" d="M24.97,30.39c-2.14,.27-4.23,.82-6.33,1.31-.99,.23-1.98,.45-2.93,.83s-1.8,.94-2.78,1.2l1.93,1.93c-.62,.44-.73,.59-.33,.45h-.03c.24,.07,.65-.05,.92-.06,.66-.04,1.33-.06,1.99-.08,1.23-.03,2.46-.04,3.68-.05s2.56-.03,3.84-.08c1.15-.05,2.39-.04,3.52-.3s2.04-1.02,2.39-2.15c.32-1.03,.4-2.46-.46-3.25s-2.43-.71-3.49-.42c-.24,.07-.46,.16-.69,.26-.27,.12,.07-.02-.14,.07-.49,.2-1,.33-1.52,.41-.84,.12-1.3,1.19-1.1,1.93,.25,.9,1.09,1.22,1.93,1.1s1.47-.43,2.22-.7c.07-.02,.13-.07,.2-.09-.14,.04,.05,0,.2,0,.31,0,.58-.05,.87,.08l-.69-.4,.13,.13-.4-.69c.05,.15,0,.37-.02,.54,0,.19-.15,.22,0,.12-.02,.01-.03,0-.05,.01-.55,.28-1.53,.17-2.14,.2-1.69,.09-3.38,.11-5.06,.12s-3.28,.03-4.91,.11c-1.48,.08-3.49,.13-3.89,1.94-.26,1.16,.73,2.25,1.93,1.93,.94-.25,1.78-.72,2.65-1.13s1.83-.62,2.77-.84c1.9-.44,3.83-1.02,5.78-1.26,.84-.11,1.57-.65,1.57-1.57,0-.77-.72-1.68-1.57-1.57Z"/></g></g></svg>