<?xml version="1.0" encoding="UTF-8"?><svg id="Layer_2" xmlns="http://www.w3.org/2000/svg" viewBox="0 0 79.06 116.32"><defs><style>.cls-1{fill:#fff;}.cls-2{fill:#ffe3b6;}.cls-3{fill:#7b6a58;}.cls-4{fill:none;stroke:#1d1d1b;stroke-miterlimit:10;stroke-width:2px;}.cls-5{fill:#fff7ea;}.cls-6{fill:#acdad8;}.cls-7{fill:#1d1d1b;}</style></defs><g id="Layer_1-2"><g><g><path class="cls-5" d="M77.73,53.93c.03,.27,.05,.55,.05,.84v16.91c0,1.1-.08,2.2-.24,3.28-2.1,14.86-18.32,26.41-38.02,26.41S3.61,89.82,1.51,74.97c-.16-1.08-.24-2.18-.24-3.28v-16.91c0-.28,.02-.56,.05-.84-.03-.86-.05-1.73-.05-2.61C1.28,23.68,18.4,1.28,39.53,1.28s38.25,22.4,38.25,50.05c0,.87-.02,1.75-.05,2.61Z"/><path class="cls-2" d="M39.53,102.65C19.35,102.65,2.46,90.82,.25,75.14c-.16-1.12-.25-2.29-.25-3.46v-16.91c0-.28,.02-.58,.05-.88-.03-.91-.05-1.75-.05-2.56C0,23.02,17.73,0,39.53,0s39.53,23.02,39.53,51.32c0,.82-.02,1.68-.05,2.56,.03,.3,.05,.6,.05,.88v16.91c0,1.18-.08,2.34-.25,3.47-2.21,15.67-19.1,27.5-39.28,27.5Zm0-100.1C19.14,2.55,2.55,24.43,2.55,51.32c0,.81,.02,1.65,.05,2.56v.1s0,.1,0,.1c-.03,.24-.04,.48-.04,.69v16.91c0,1.05,.07,2.09,.22,3.1,2.04,14.44,17.84,25.32,36.76,25.32s34.72-10.88,36.76-25.31c.15-1.01,.22-2.05,.22-3.11v-16.91c0-.22-.01-.45-.04-.69v-.1s0-.1,0-.1c.03-.88,.05-1.75,.05-2.56C76.51,24.43,59.92,2.55,39.53,2.55Z"/></g><circle class="cls-1" cx="23.7" cy="49.54" r="8.99"/><circle class="cls-1" cx="50.45" cy="49.54" r="8.99"/><circle class="cls-6" cx="25.32" cy="49.54" r="5.67"/><circle class="cls-6" cx="50.45" cy="49.54" r="5.67"/><path class="cls-3" d="M51.95,35.22c1.53,.35,3.07,.67,4.58,1.08s2.74,1.29,4.22,1.68c1.22,.33,2.22-.79,1.96-1.96-.4-1.77-2.32-1.88-3.8-1.96-1.71-.09-3.43-.11-5.14-.12s-3.33-.03-4.99-.12c-.73-.04-1.5-.04-2.22-.19-.26-.05-.07,.09-.13-.05-.07-.18-.1-.5-.05-.66l-.41,.7,.13-.13-.7,.41c.79-.33,2.21,.26,3.02,.46,1.17,.29,2.34,.58,3.51,.85,2,.47,2.85-2.61,.85-3.07-1.54-.36-3.07-.74-4.61-1.12-.85-.21-1.68-.44-2.56-.39-.83,.05-1.7,.29-2.15,1.06-.39,.66-.32,1.45-.21,2.17,.51,3.62,4.96,3.15,7.7,3.22,1.66,.04,3.33,.04,4.99,.06,.83,.01,1.66,.04,2.49,.08,.42,.02,.83,.04,1.24,.07,.32,.01,.41,.02,.28,.02,.41,.15,.3,0-.33-.45l1.96-1.96c-1.46-.39-2.74-1.28-4.22-1.68s-3.06-.72-4.58-1.08c-2-.46-2.85,2.61-.85,3.07Z"/><path class="cls-3" d="M76.62,74.16c-2.03,14.93-17.75,42.16-36.83,42.16S4.99,89.09,2.96,74.16c-.15-1.09-.23-2.19-.23-3.3v-3.93c0,3.98,3.26,7.24,7.25,7.24h59.4c3.98,0,7.24-3.26,7.24-7.24,0,0,.15,6.15,0,7.24Z"/><path class="cls-3" d="M25.37,30.87c-2.17,.27-4.3,.84-6.43,1.33-1.01,.23-2.01,.45-2.97,.84s-1.83,.95-2.82,1.22l1.96,1.96c-.63,.45-.74,.6-.33,.45h-.03c.25,.07,.66-.05,.93-.06,.67-.04,1.35-.06,2.02-.08,1.25-.03,2.5-.04,3.74-.05s2.6-.03,3.9-.08c1.17-.05,2.43-.04,3.58-.31s2.07-1.04,2.43-2.19c.33-1.05,.41-2.5-.47-3.3s-2.47-.72-3.55-.43c-.24,.07-.47,.16-.7,.27-.27,.12,.07-.02-.15,.07-.5,.2-1.01,.34-1.55,.42-.85,.13-1.32,1.2-1.11,1.96,.25,.91,1.11,1.24,1.96,1.11s1.49-.44,2.26-.72c.07-.02,.13-.07,.2-.09-.14,.04,.05,0,.2,0,.31,0,.59-.05,.88,.08l-.7-.41,.13,.13-.41-.7c.05,.15,0,.37-.02,.55,0,.19-.15,.23,0,.12-.02,.01-.03,0-.05,.01-.56,.29-1.55,.17-2.17,.21-1.71,.09-3.43,.11-5.14,.12s-3.33,.03-4.99,.12c-1.51,.08-3.54,.13-3.95,1.97-.26,1.17,.75,2.29,1.96,1.96,.95-.26,1.81-.73,2.69-1.15s1.86-.63,2.82-.85c1.93-.45,3.89-1.03,5.87-1.28,.85-.11,1.59-.66,1.59-1.59,0-.78-.73-1.7-1.59-1.59Z"/><rect class="cls-4" x="11.03" y="38.8" width="21.49" height="21.49" rx="5.4" ry="5.4"/><rect class="cls-4" x="39.7" y="38.8" width="21.49" height="21.49" rx="5.4" ry="5.4"/><path class="cls-2" d="M34.89,43.07c-.76,5.23-2.5,10.05-4.97,14.71-1.12,2.12-2.71,4.96-1.78,7.41,.85,2.24,3.25,3,5.43,3.23,3.13,.32,6.36-.03,9.4-.81,1.99-.51,1.14-3.58-.85-3.07-2.79,.72-5.9,1.1-8.77,.67-.72-.11-1.89-.34-2.21-1.06-.43-.95,.42-2.5,.82-3.36,1.29-2.71,2.75-5.28,3.79-8.1s1.78-5.77,2.21-8.76c.12-.85-.21-1.71-1.11-1.96-.75-.21-1.84,.26-1.96,1.11h0Z"/><path class="cls-7" d="M32.9,49.25c.46-.17,.92-.32,1.4-.42,.53-.11,1.08-.11,1.62-.11,.58,0,1.17,.02,1.75,.03,.3,0,.59,0,.89,.04,.09,0,.18,.02,.26,.04,.07,.02,.15,.04,.22,.06-.03,0-.06-.01-.09-.04l-.2-.35v.05c.01-.14,.01-.28,.01-.42v.05c-.25,1,1.29,1.42,1.53,.42,.41-1.74-2.77-1.44-3.74-1.46-.7-.01-1.4-.02-2.1,.07s-1.32,.27-1.97,.51c-.4,.15-.68,.54-.56,.98,.11,.39,.57,.7,.98,.56h0Z"/><line class="cls-4" x1="61.19" y1="48.48" x2="77.78" y2="39.01"/><path class="cls-2" d="M49.02,80.99c0,2.03-4.8,6.38-10.73,6.38s-10.73-3.92-10.73-5.95,4.8-1.42,10.73-1.42,10.73-1.04,10.73,.99Z"/><line class="cls-4" x1="11.02" y1="48.23" x2="1.28" y2="40.55"/></g></g></svg>