<?xml version="1.0" encoding="UTF-8"?><svg id="Layer_2" xmlns="http://www.w3.org/2000/svg" viewBox="0 0 78.81 102.32"><defs><style>.cls-1{fill:#fff;}.cls-2{fill:#ffe3b6;}.cls-3{fill:#fff7ea;}.cls-4{fill:#fbf5bc;}.cls-5{fill:#acdad8;}</style></defs><g id="Layer_1-2"><g><path class="cls-3" d="M77.49,53.76c.03,.27,.05,.55,.05,.83v16.86c0,1.1-.08,2.19-.24,3.27-2.09,14.81-18.27,26.32-37.9,26.32S3.6,89.54,1.51,74.73c-.16-1.08-.24-2.17-.24-3.27v-16.86c0-.28,.02-.56,.05-.83-.03-.86-.05-1.73-.05-2.6C1.27,23.6,18.34,1.27,39.4,1.27s38.13,22.33,38.13,49.89c0,.87-.02,1.74-.05,2.6Z"/><path class="cls-2" d="M39.4,102.32C19.29,102.32,2.45,90.54,.25,74.91c-.16-1.12-.25-2.28-.25-3.45v-16.86c0-.28,.02-.58,.05-.88-.03-.89-.05-1.75-.05-2.55C0,22.95,17.68,0,39.4,0s39.4,22.95,39.4,51.16c0,.81-.02,1.66-.05,2.55,.03,.3,.05,.6,.05,.88v16.86c0,1.17-.08,2.34-.25,3.46-2.21,15.62-19.04,27.41-39.16,27.41Zm0-99.78C19.08,2.54,2.54,24.35,2.54,51.16c0,.8,.02,1.66,.05,2.55v.1s0,.1,0,.1c-.03,.24-.04,.47-.04,.68v16.86c0,1.05,.07,2.09,.22,3.09,2.03,14.39,17.78,25.24,36.64,25.24s34.61-10.85,36.64-25.23c.15-1.01,.22-2.05,.22-3.1v-16.86c0-.21-.01-.45-.04-.68v-.1s0-.1,0-.1c.03-.89,.05-1.75,.05-2.55C76.27,24.35,59.73,2.54,39.4,2.54Z"/><circle class="cls-1" cx="23.63" cy="49.38" r="8.96"/><circle class="cls-1" cx="50.29" cy="49.38" r="8.96"/><ellipse class="cls-2" cx="34.76" cy="83.42" rx="5.85" ry="3.67"/><circle class="cls-5" cx="25.24" cy="49.38" r="5.65"/><circle class="cls-5" cx="50.29" cy="49.38" r="5.65"/><path class="cls-4" d="M31.69,41.34c-.17,.68-.58,1.21-1.15,.99-3.26-1.25-6.62-1.44-9.96-1.47-.75,0-1.49,0-2.24,0-.52,.03-1.05,.06-1.57,.1-.87,.05-1.75,.12-2.61-.15-1.2-.37-2.3-1.62-2.73-3.42,0-.01,0-.03-.01-.04-.41-1.42-.48-3.17,.39-4.06,.8-.83,1.47,.04,2.16,.67,.45,.41,.99,.53,1.51,.59,3.04,.34,6.1-.09,9.15,.02,1.5,.04,3.09,.07,4.56,.57,1.11,.39,2.13,1.74,2.22,3.52,.18,.4,.32,.86,.41,1.37,.09,.53,.02,.99-.14,1.32Z"/><path class="cls-4" d="M41.51,41.98c.17,.68,.58,1.21,1.15,.99,3.26-1.25,6.62-1.44,9.96-1.47,.75,0,1.49,0,2.24,0,.52,.03,1.05,.06,1.57,.1,.87,.05,1.75,.12,2.61-.15,1.2-.37,2.3-1.62,2.73-3.42,0-.01,0-.03,.01-.04,.41-1.42,.48-3.17-.39-4.06-.8-.83-1.47,.04-2.16,.67-.45,.41-.99,.53-1.51,.59-3.04,.34-6.1-.09-9.15,.02-1.5,.04-3.09,.07-4.56,.57-1.11,.39-2.13,1.74-2.22,3.52-.18,.4-.32,.86-.41,1.37-.09,.53-.02,.99,.14,1.32Z"/><path class="cls-2" d="M32.63,42.6c-.44,2.79-1.25,5.52-2.51,8.05-.63,1.26-1.35,2.48-2.16,3.64s-1.84,2.34-2.49,3.68c-1.23,2.56-1.57,6.14,.22,8.52s4.67,3.27,7.48,3.5c3.46,.29,7.07-.33,10.33-1.48,.81-.29,1.35-1.08,1.11-1.95-.22-.78-1.14-1.4-1.95-1.11-2.6,.92-5.31,1.44-8.08,1.43-2.14,0-4.65-.35-6.15-2.04s-.68-4.65,.41-6.35c.73-1.12,1.6-2.15,2.33-3.27s1.33-2.18,1.88-3.33c1.28-2.68,2.19-5.51,2.65-8.45,.13-.85-.22-1.71-1.11-1.95-.75-.21-1.82,.26-1.95,1.11h0Z"/></g></g></svg>